<svg width="24" height="24" viewBox="0 0 24 24" fill="none" xmlns="http://www.w3.org/2000/svg">
<g clip-path="url(#clip0_1_13)">
<path fill-rule="evenodd" clip-rule="evenodd" d="M22.5 21C22.5 21.825 21.828 22.5 21 22.5H3C2.172 22.5 1.5 21.825 1.5 21V3C1.5 2.172 2.172 1.5 3 1.5H21C21.828 1.5 22.5 2.172 22.5 3V21ZM21 0H3C1.34325 0 0 1.34325 0 3V21C0 22.6575 1.34325 24 3 24H21C22.6567 24 24 22.6575 24 21V3C24 1.34325 22.6567 0 21 0ZM17.6513 11.3407L13.4092 7.09877C13.116 6.80552 12.6412 6.80552 12.3487 7.09877C12.0555 7.39052 12.0555 7.86602 12.3487 8.15927L15.4395 11.25H7.5C7.08525 11.25 6.75 11.5852 6.75 12C6.75 12.414 7.08525 12.75 7.5 12.75H15.4395L12.3487 15.84C12.0555 16.1325 12.0555 16.605 12.3487 16.905C12.6412 17.1975 13.116 17.1975 13.4092 16.905L17.6513 12.6593C17.8313 12.4793 17.8875 12.2332 17.8463 12C17.8875 11.7668 17.8313 11.5207 17.6513 11.3407Z" fill="#514F4F"/>
</g>
<defs>
<clipPath id="clip0_1_13">
<rect width="24" height="24" fill="white"/>
</clipPath>
</defs>
</svg>
