<svg width="24" height="24" viewBox="0 0 24 24" fill="none" xmlns="http://www.w3.org/2000/svg">
<g clip-path="url(#clip0_1_18)">
<path fill-rule="evenodd" clip-rule="evenodd" d="M1.5 3C1.5 2.175 2.172 1.5 3 1.5L21 1.5C21.828 1.5 22.5 2.175 22.5 3L22.5 21C22.5 21.828 21.828 22.5 21 22.5L3 22.5C2.172 22.5 1.5 21.828 1.5 21L1.5 3ZM3 24L21 24C22.6568 24 24 22.6568 24 21L24 3C24 1.3425 22.6568 -1.17431e-07 21 -2.62268e-07L3 -1.83588e-06C1.34325 -1.98072e-06 1.98078e-06 1.3425 1.83588e-06 3L2.62268e-07 21C1.17431e-07 22.6567 1.34325 24 3 24ZM6.34875 12.6593L10.5908 16.9012C10.884 17.1945 11.3588 17.1945 11.6513 16.9012C11.9445 16.6095 11.9445 16.134 11.6513 15.8407L8.5605 12.75L16.5 12.75C16.9148 12.75 17.25 12.4147 17.25 12C17.25 11.586 16.9148 11.25 16.5 11.25L8.5605 11.25L11.6513 8.16C11.9445 7.8675 11.9445 7.39501 11.6513 7.09502C11.3588 6.80252 10.884 6.80252 10.5908 7.09502L6.34875 11.3407C6.16875 11.5207 6.11249 11.7667 6.15374 12C6.11249 12.2332 6.16875 12.4793 6.34875 12.6593Z" fill="#514F4F"/>
</g>
<defs>
<clipPath id="clip0_1_18">
<rect width="24" height="24" fill="white" transform="translate(24 24) rotate(-180)"/>
</clipPath>
</defs>
</svg>
